<svg width="32" height="32" viewBox="0 0 32 32" fill="none" xmlns="http://www.w3.org/2000/svg">
<rect width="32" height="32" fill="#272727"/>
<path d="M0.426 22.816C0.279333 22.7427 0.198667 22.6253 0.184 22.464C0.169333 22.3027 0.125333 22.1633 0.0519999 22.046L0.294 21.232L0.558 21.408H0.602L0.822 21.21L0.998 21.188L1.13 21.078C1.93667 20.8727 2.714 20.6013 3.462 20.264H3.506C3.40333 20.3813 3.27133 20.5207 3.11 20.682C2.94867 20.8433 2.79467 20.9607 2.648 21.034L2.538 21.232L2.67 21.298C2.846 21.298 3.11 21.188 3.462 20.968C3.82867 20.748 4.232 20.4693 4.672 20.132C5.112 19.7947 5.552 19.4427 5.992 19.076C6.432 18.6947 6.82067 18.35 7.158 18.042C7.51 17.734 7.76667 17.4993 7.928 17.338C7.73733 17.382 7.53933 17.4333 7.334 17.492C7.14333 17.5507 6.94533 17.5947 6.74 17.624C6.66667 17.6973 6.586 17.8 6.498 17.932C6.41 18.064 6.3 18.13 6.168 18.13C6.02133 18.13 5.85267 18.0933 5.662 18.02C5.486 17.932 5.398 17.7927 5.398 17.602C5.398 17.4553 5.486 17.2793 5.662 17.074C5.85267 16.8687 6.02133 16.766 6.168 16.766L6.212 16.898C6.388 16.9127 6.564 16.9273 6.74 16.942C6.916 16.942 7.092 16.942 7.268 16.942L7.488 16.876L7.686 16.942C7.80333 16.8393 7.93533 16.7807 8.082 16.766C8.24333 16.7513 8.39733 16.744 8.544 16.744C8.77867 16.5093 9.094 16.194 9.49 15.798C9.886 15.402 10.2967 14.9767 10.722 14.522C11.1473 14.0527 11.5213 13.6053 11.844 13.18C12.1667 12.7547 12.3793 12.4027 12.482 12.124L12.526 12.058L12.548 12.08C12.7387 11.8013 12.8707 11.4933 12.944 11.156C13.0173 10.8187 13.1127 10.5033 13.23 10.21V10.232C13.2447 10.2027 13.2667 10.1513 13.296 10.078C13.3253 10.0047 13.34 9.95333 13.34 9.924C13.34 9.68933 13.274 9.47667 13.142 9.286C13.142 9.198 13.2007 9.09533 13.318 8.978C13.4353 8.846 13.5673 8.736 13.714 8.648C13.8607 8.54533 13.978 8.494 14.066 8.494C14.1393 8.494 14.176 8.50867 14.176 8.538L14.198 9.088C14.2273 9.63067 14.1613 10.0853 14 10.452C13.8387 10.8187 13.648 11.2367 13.428 11.706V11.662C13.3107 11.8233 13.2153 11.9993 13.142 12.19C13.0687 12.3807 12.9807 12.5713 12.878 12.762C12.5407 13.3487 12.1373 13.8987 11.668 14.412C11.1987 14.9107 10.744 15.4167 10.304 15.93H10.282C10.1647 15.93 10.04 16.0253 9.908 16.216C9.776 16.392 9.68067 16.5313 9.622 16.634H9.556L9.38 16.744V16.766C9.84933 16.7367 10.326 16.7 10.81 16.656C11.294 16.5973 11.778 16.5607 12.262 16.546L12.614 15.974L12.592 15.732L12.79 15.512C12.878 15.0867 12.988 14.6687 13.12 14.258C13.2667 13.8327 13.4207 13.4147 13.582 13.004V12.916C13.626 12.828 13.692 12.652 13.78 12.388C13.868 12.1093 13.9487 11.8527 14.022 11.618C14.11 11.3833 14.176 11.266 14.22 11.266C14.2493 11.1633 14.286 10.9947 14.33 10.76C14.374 10.5253 14.4327 10.3053 14.506 10.1C14.594 9.89467 14.6967 9.792 14.814 9.792C15.078 9.90933 15.342 10.012 15.606 10.1C15.8847 10.1733 16.1487 10.2687 16.398 10.386L16.596 10.694C16.552 10.8407 16.5007 10.9873 16.442 11.134C16.398 11.2807 16.3467 11.4273 16.288 11.574L16.156 11.42L16.046 11.53C15.914 11.4127 15.7527 11.3467 15.562 11.332C15.4887 11.3613 15.4227 11.42 15.364 11.508C15.3053 11.5813 15.2613 11.662 15.232 11.75C15.32 11.7647 15.408 11.772 15.496 11.772C15.5987 11.772 15.7013 11.772 15.804 11.772H16.068C16.0533 11.8453 15.9947 11.904 15.892 11.948C15.7893 11.9773 15.7013 12.0067 15.628 12.036L15.474 11.904L15.298 12.124L15.166 12.058C15.166 12.2193 15.1073 12.3293 14.99 12.388L14.77 12.52L14.682 12.762L14.968 12.916L14.902 13.202L14.748 13.29L14.638 13.268C14.5793 13.356 14.4913 13.5393 14.374 13.818C14.2567 14.082 14.1393 14.3753 14.022 14.698C13.9193 15.0207 13.824 15.3213 13.736 15.6C13.6627 15.864 13.626 16.0473 13.626 16.15V16.26H13.934C14.374 16.26 14.814 16.2233 15.254 16.15C15.694 16.0767 16.134 16.018 16.574 15.974L16.662 15.93L16.728 15.974C16.64 16.194 16.4567 16.3333 16.178 16.392C15.914 16.4507 15.606 16.502 15.254 16.546C14.9167 16.5753 14.5793 16.6487 14.242 16.766C13.9193 16.8833 13.648 17.1107 13.428 17.448C13.208 17.7707 13.098 18.262 13.098 18.922V19.032L13.12 19.01L13.384 18.9C13.34 19.164 13.3107 19.428 13.296 19.692C13.2813 19.9413 13.274 20.1907 13.274 20.44V21.32L13.142 21.496C13.0687 21.4813 12.9953 21.4667 12.922 21.452C12.8487 21.452 12.7753 21.452 12.702 21.452C12.6433 21.452 12.5773 21.452 12.504 21.452C12.4307 21.4667 12.3573 21.4813 12.284 21.496C12.2253 21.4667 12.152 21.4373 12.064 21.408C11.9907 21.3933 11.91 21.4007 11.822 21.43C11.69 21.386 11.5433 21.3273 11.382 21.254L11.272 20.748C11.404 20.6747 11.47 20.5573 11.47 20.396L11.404 20.264C11.4773 19.8973 11.558 19.538 11.646 19.186C11.734 18.834 11.822 18.482 11.91 18.13C11.954 18.042 11.9907 17.954 12.02 17.866C12.0493 17.778 12.064 17.69 12.064 17.602L12.196 17.426L12.24 17.25L12.152 16.964L11.404 16.942C11.404 17.0007 11.294 17.0667 11.074 17.14C10.854 17.2133 10.6193 17.2867 10.37 17.36C10.1353 17.4187 9.98133 17.47 9.908 17.514C9.84933 17.5433 9.78333 17.5873 9.71 17.646C9.63667 17.69 9.556 17.7047 9.468 17.69L9.226 17.668L9.138 17.47L9.028 17.536H8.632L8.412 17.712H8.434L8.214 17.932H8.17L7.664 18.328L7.686 18.35C7.246 18.7607 6.73267 19.2007 6.146 19.67C5.55933 20.1247 4.936 20.5647 4.276 20.99C3.616 21.43 2.956 21.8113 2.296 22.134C1.636 22.4567 1.01267 22.684 0.426 22.816ZM15.694 11.068L15.716 11.002H15.672L15.628 11.046L15.694 11.068ZM15.43 12.96L15.342 12.938L15.496 12.718L15.562 12.938L15.43 12.96ZM14.572 13.18L14.682 13.026L14.66 12.96L14.44 13.114L14.572 13.18ZM3.836 20.11L3.88 19.978L3.946 20L3.968 20.088L3.946 20.11H3.836ZM28.8053 21.232C28.4826 21.232 28.1673 21.188 27.8593 21.1C27.566 21.012 27.2653 20.9387 26.9573 20.88L27.0013 20.792C26.9573 20.6747 26.8473 20.6013 26.6713 20.572C26.51 20.5427 26.334 20.5207 26.1433 20.506C25.9526 20.506 25.806 20.4913 25.7033 20.462L25.5933 20.33H25.5273C25.366 20.33 25.2266 20.286 25.1093 20.198C24.992 20.1247 24.882 20.0367 24.7793 19.934L24.4493 19.978L24.3613 19.824V19.714L24.2513 19.604L24.1633 19.714C24.0166 19.6847 23.848 19.6187 23.6573 19.516C23.4813 19.4133 23.386 19.2813 23.3713 19.12C23.298 19.0467 23.1806 18.9073 23.0193 18.702C22.8726 18.482 22.7186 18.262 22.5573 18.042C22.4106 17.8073 22.3006 17.6387 22.2273 17.536L22.3373 17.338L22.2713 17.206L22.1833 17.228C22.0953 17.1547 22.044 17.052 22.0293 16.92C22.0293 16.788 22.0366 16.6707 22.0513 16.568L21.8753 16.392H21.8093C21.7946 16.4947 21.7506 16.6193 21.6773 16.766C21.6186 16.9127 21.5233 16.986 21.3913 16.986V16.832L21.2593 16.656H21.2373C21.1786 16.656 21.1273 16.6853 21.0833 16.744C21.054 16.788 21.054 16.8467 21.0833 16.92C21.0393 16.9787 20.9953 17.0373 20.9513 17.096C20.9073 17.14 20.8853 17.1987 20.8853 17.272L20.9953 17.47L21.1713 17.426L21.2593 17.47C21.2593 17.514 21.1713 17.6313 20.9953 17.822C20.8193 18.0127 20.636 18.2473 20.4453 18.526C20.2546 18.79 20.1373 19.0687 20.0933 19.362L19.8293 19.516L20.0053 19.626L20.0933 19.802L19.9393 20.088L20.0273 20.176C20.042 20.2493 20.0566 20.3227 20.0713 20.396C20.1006 20.484 20.1373 20.5573 20.1813 20.616L20.2913 20.66C20.438 20.66 20.6066 20.6087 20.7973 20.506C21.0026 20.4033 21.2006 20.2787 21.3913 20.132C21.5966 20 21.758 19.8973 21.8753 19.824L21.9633 19.934C21.9486 19.9927 21.868 20.1027 21.7213 20.264C21.5893 20.44 21.4426 20.6087 21.2813 20.77C21.12 20.9313 21.01 21.056 20.9513 21.144H20.6653C20.4453 21.144 20.1813 21.1073 19.8733 21.034C19.5653 20.9753 19.2866 20.8653 19.0373 20.704C18.8026 20.5573 18.6853 20.3447 18.6853 20.066C18.6853 19.7287 18.7733 19.318 18.9493 18.834C19.1253 18.3353 19.338 17.822 19.5873 17.294C19.8513 16.766 20.1153 16.2673 20.3793 15.798C20.658 15.3287 20.8853 14.94 21.0613 14.632L20.9953 14.522C20.8633 14.522 20.7753 14.434 20.7313 14.258C20.702 14.082 20.68 13.8987 20.6653 13.708C20.6653 13.5173 20.6286 13.4073 20.5553 13.378H20.5333L20.4893 13.224L20.5773 12.982C20.7826 12.9087 20.9953 12.8427 21.2153 12.784C21.4353 12.7107 21.6626 12.674 21.8973 12.674L21.8093 12.718L22.1833 12.85L23.2613 11.2C23.1 11.2 22.7993 11.2367 22.3593 11.31C21.934 11.3833 21.4426 11.4787 20.8853 11.596C20.3426 11.7133 19.8073 11.8527 19.2793 12.014C18.766 12.1607 18.3333 12.322 17.9813 12.498C17.644 12.6593 17.4606 12.8207 17.4313 12.982L17.6073 13.048C17.71 12.9893 17.8126 12.96 17.9153 12.96C18.0326 12.9453 18.15 12.938 18.2673 12.938L18.5753 12.828L18.5533 12.872C18.2306 13.0773 17.9373 13.312 17.6733 13.576C17.4093 13.8253 17.1453 14.0893 16.8813 14.368L16.7493 14.412L16.6613 14.566L16.4193 14.61L16.3973 14.654L16.4193 15.05L15.6713 14.676C15.6126 14.5147 15.5246 14.368 15.4073 14.236C15.3046 14.104 15.2533 13.95 15.2533 13.774C15.8106 13.0847 16.478 12.564 17.2553 12.212C18.0326 11.8453 18.8026 11.4787 19.5653 11.112L19.5433 11.134C19.5726 11.1487 19.6166 11.1633 19.6753 11.178C19.734 11.1927 19.778 11.2 19.8073 11.2C19.9246 11.2 20.042 11.178 20.1593 11.134C20.2766 11.0753 20.394 11.0313 20.5113 11.002V11.046C20.6433 11.0167 20.7753 10.9873 20.9073 10.958C21.0393 10.914 21.1786 10.8627 21.3253 10.804V10.848L21.6553 10.738V10.716L21.7653 10.738L21.7433 10.716L21.9853 10.606L22.1173 10.65L22.0733 10.606H22.1393V10.65H22.4693L22.6233 10.584L22.6673 10.518L23.2613 10.54L23.2833 10.518L23.4813 10.43C23.584 10.43 23.6793 10.43 23.7673 10.43C23.87 10.4153 23.9726 10.408 24.0753 10.408C24.178 10.2907 24.266 10.1513 24.3393 9.99C24.4273 9.82867 24.5666 9.748 24.7573 9.748C24.9626 9.748 25.146 9.792 25.3073 9.88C25.4686 9.968 25.6446 10.012 25.8353 10.012C25.8646 10.1 25.982 10.188 26.1873 10.276C26.3926 10.3493 26.62 10.4153 26.8693 10.474C27.1333 10.518 27.3826 10.5547 27.6173 10.584C27.852 10.5987 28.0206 10.606 28.1233 10.606L29.0693 10.892L29.1353 10.87C29.2673 10.87 29.4506 10.958 29.6853 11.134C29.92 11.31 30.1473 11.5007 30.3673 11.706C30.602 11.9113 30.7706 12.0653 30.8733 12.168C30.9026 12.2707 30.932 12.3807 30.9613 12.498C30.9906 12.6153 31.0346 12.7253 31.0933 12.828C31.0346 13.3853 30.932 13.8033 30.7853 14.082C30.6386 14.346 30.426 14.5367 30.1473 14.654C29.8686 14.7713 29.4873 14.896 29.0033 15.028L28.7173 15.006V15.116H28.6733L28.5853 15.028L27.7053 15.292V15.16C27.4266 15.3507 27.214 15.446 27.0673 15.446C26.9353 15.446 26.7226 15.4607 26.4293 15.49L26.4073 15.446C26.3486 15.5047 26.29 15.5413 26.2313 15.556C26.1726 15.556 26.1066 15.556 26.0333 15.556C25.7986 15.556 25.5786 15.6147 25.3733 15.732C25.1826 15.8493 24.9773 15.8933 24.7573 15.864V15.974L24.6473 15.952L24.5593 15.864L24.5153 15.952V15.974L24.4713 15.952C24.442 15.9373 24.4126 15.93 24.3833 15.93C24.354 15.9153 24.3246 15.908 24.2953 15.908C24.222 15.908 24.1486 15.9227 24.0753 15.952C24.002 15.9667 23.9286 15.974 23.8553 15.974L23.8773 15.842L23.8333 15.864C23.7013 15.8347 23.562 15.8347 23.4153 15.864C23.2833 15.8933 23.1513 15.9227 23.0193 15.952C23.386 16.7147 23.7306 17.3453 24.0533 17.844C24.376 18.328 24.75 18.768 25.1753 19.164C25.6153 19.56 26.18 20 26.8693 20.484C27.2506 20.5133 27.632 20.5793 28.0133 20.682C28.3946 20.7993 28.7833 20.858 29.1793 20.858C29.3993 20.858 29.6193 20.836 29.8393 20.792C30.0593 20.748 30.2793 20.726 30.4993 20.726H30.5873C30.4993 20.7993 30.338 20.8727 30.1033 20.946C29.8686 21.034 29.6266 21.1 29.3773 21.144C29.128 21.2027 28.9373 21.232 28.8053 21.232ZM22.7993 15.446C23.6646 15.2847 24.5153 15.1087 25.3513 14.918C26.202 14.7273 27.0306 14.4853 27.8373 14.192L27.8593 14.17C28.1233 14.0673 28.402 13.95 28.6953 13.818C28.9886 13.6713 29.2453 13.488 29.4653 13.268C29.6853 13.048 29.7953 12.784 29.7953 12.476C29.7366 12.344 29.656 12.2047 29.5533 12.058C29.4506 11.9113 29.3113 11.8233 29.1353 11.794C29.018 11.7353 28.8493 11.662 28.6293 11.574C28.424 11.4713 28.2113 11.376 27.9913 11.288C27.7713 11.2 27.588 11.1487 27.4413 11.134V11.156H27.3753C27.2873 11.112 27.2066 11.09 27.1333 11.09C27.0746 11.09 27.016 11.0973 26.9573 11.112C26.8986 11.1267 26.8326 11.134 26.7593 11.134L26.5833 11.002H26.3193C26.158 11.002 25.9966 11.002 25.8353 11.002C25.674 10.9873 25.5126 10.9727 25.3513 10.958C25.1606 11.134 24.9186 11.3833 24.6253 11.706C24.3466 12.014 24.0753 12.3367 23.8113 12.674C23.562 12.9967 23.386 13.2827 23.2833 13.532V13.752C23.122 13.8253 22.99 13.95 22.8873 14.126C22.7846 14.302 22.6966 14.4633 22.6233 14.61C22.7406 14.918 22.7993 15.1967 22.7993 15.446ZM29.1353 11.794C29.2233 11.838 29.2746 11.8673 29.2893 11.882C29.304 11.882 29.2673 11.86 29.1793 11.816L29.1353 11.794ZM22.1173 19.736L21.9633 19.692C21.9633 19.6187 22.0073 19.5527 22.0953 19.494C22.198 19.4207 22.2786 19.3767 22.3373 19.362L22.4033 19.406L22.1173 19.736Z" fill="url(#paint0_linear_50_56)"/>
<defs>
<linearGradient id="paint0_linear_50_56" x1="3" y1="7.20306" x2="29" y2="24.7969" gradientUnits="userSpaceOnUse">
<stop offset="0.445" stop-color="#F7F7F7"/>
<stop offset="0.74" stop-color="#9FD7F7"/>
<stop offset="1" stop-color="#77CAFA"/>
</linearGradient>
</defs>
</svg>
